Coordinates
version=1
nRows=11
nColumns=36
inDegrees=yes

Units are S.I. units (second, meters, Newtons, ...)
Angles are in degrees.

endheader
time	pelvis_tilt	pelvis_list	pelvis_rotation	pelvis_tx	pelvis_ty	pelvis_tz	hip_flexion_r	hip_adduction_r	hip_rotation_r	knee_angle_r	ankle_angle_r	subtalar_angle_r	hip_flexion_l	hip_adduction_l	hip_rotation_l	knee_angle_l	ankle_angle_l	subtalar_angle_l	lumbar_extension	lumbar_bending	lumbar_rotation	arm_flex_r	arm_add_r	arm_rot_r	elbow_flex_r	pro_sup_r	wrist_flex_r	wrist_dev_r	arm_flex_l	arm_add_l	arm_rot_l	elbow_flex_l	pro_sup_l	wrist_flex_l	wrist_dev_l
      1.20000000	      0.04494229	     -1.26467402	      3.93397164	     -0.94868668	      0.92866773	     -0.19617944	     -0.56580594	      6.05691802	     -7.06643483	    -14.31146479	      9.90065926	      0.59158441	     25.68177044	      2.00783692	      5.07902885	    -46.52242364	      2.12945043	     -4.00552533	     -8.12700018	      4.81284947	      0.44246393	     -3.85775201	    -22.23484257	      6.87480687	     33.76544649	     86.51662706	      0.00000000	      0.00000000	     -4.36211444	    -15.12261813	     12.68122164	     27.56665676	     86.51662706	      0.00000000	      0.00000000
      1.21000000	      0.06226010	     -1.20794815	      3.69116661	     -0.93722102	      0.92757165	     -0.19583985	     -1.76702922	      6.07113071	     -6.71724133	    -13.63083762	     10.27839683	      0.92954235	     26.14543057	      1.97339648	      4.83424230	    -43.48820284	      2.26089210	     -4.79463050	     -8.30292068	      4.71909711	      0.88971042	     -3.56456770	    -22.45869607	      6.95497416	     34.05306606	     86.51662706	      0.00000000	      0.00000000	     -4.29596249	    -15.04042140	     12.64259982	     27.36747983	     86.51662706	      0.00000000	      0.00000000
      1.22000000	      0.14526758	     -1.16037265	      3.58948461	     -0.92561676	      0.92638019	     -0.19567879	     -3.03353074	      6.10960457	     -6.48179248	    -12.98193683	     10.68291179	      1.11781308	     26.45956181	      1.98326786	      4.77236603	    -40.33771555	      2.27843409	     -5.51758245	     -8.52682300	      4.64449825	      1.17538259	     -3.27659610	    -22.63828401	      7.00783818	     34.28778008	     86.51662706	      0.00000000	      0.00000000	     -4.25938697	    -14.97670359	     12.61634257	     27.19979351	     86.51662706	      0.00000000	      0.00000000
      1.23000000	      0.26771270	     -1.12056939	      3.58730836	     -0.91391515	      0.92507772	     -0.19565585	     -4.32095091	      6.16686371	     -6.33856742	    -12.38746812	     11.10847065	      1.19515714	     26.65767872	      2.01935405	      4.84300376	    -37.09678348	      2.24286018	     -6.11460165	     -8.77607065	      4.58568146	      1.34130698	     -2.99543001	    -22.78291358	      7.04106216	     34.47818997	     86.51662706	      0.00000000	      0.00000000	     -4.24246912	    -14.92546440	     12.60523348	     27.04820484	     86.51662706	      0.00000000	      0.00000000
      1.24000000	      0.39994493	     -1.08759142	      3.63714496	     -0.90214287	      0.92363314	     -0.19572433	     -5.57812959	      6.23776941	     -6.26125420	    -11.87446311	     11.54826725	      1.20666172	     26.77783669	      2.05915302	      4.98396551	    -33.80359780	      2.22020402	     -6.50688747	     -9.02371701	      4.53918964	      1.43566399	     -2.72371240	    -22.90313394	      7.06375575	     34.63418820	     86.51662706	      0.00000000	      0.00000000	     -4.23395423	    -14.87975318	     12.61289999	     26.89414376	     86.51662706	      0.00000000	      0.00000000
      1.25000000	      0.51615452	     -1.06265577	      3.69731721	     -0.89030703	      0.92200781	     -0.19584451	     -6.76082703	      6.31814433	     -6.22361516	    -11.46802158	     11.99544042	      1.19436162	     26.85457237	      2.08057992	      5.13284658	    -30.50671590	      2.26306262	     -6.61306628	     -9.24455355	      4.50300362	      1.50143041	     -2.46493431	    -23.00833078	      7.08443503	     34.76459777	     86.51662706	      0.00000000	      0.00000000	     -4.22408630	    -14.83307689	     12.64313437	     26.72003349	     86.51662706	      0.00000000	      0.00000000
      1.26000000	      0.59868441	     -1.05028823	      3.73818970	     -0.87839839	      0.92019038	     -0.19598513	     -7.84021642	      6.40399350	     -6.20267822	    -11.18713289	     12.44282956	      1.19260568	     26.91582121	      2.06613548	      5.23421829	    -27.26351713	      2.40132262	     -6.36562844	     -9.41938435	      4.47768939	      1.56988237	     -2.22299830	    -23.10561380	      7.10967420	     34.87592024	     86.51662706	      0.00000000	      0.00000000	     -4.20607538	    -14.78001769	     12.69930590	     26.51228064	     86.51662706	      0.00000000	      0.00000000
      1.27000000	      0.63962680	     -1.05730388	      3.74349624	     -0.86640320	      0.91822531	     -0.19612120	     -8.80543916	      6.49111920	     -6.18072494	    -11.04259326	     12.88182619	      1.22697182	     26.98249245	      2.00639109	      5.24386092	    -24.13904804	      2.64135738	     -5.72571954	     -9.53772178	      4.46660511	      1.65868565	     -2.00175297	    -23.19962236	      7.14338468	     34.97204494	     86.51662706	      0.00000000	      0.00000000	     -4.17640592	    -14.71629018	     12.78390682	     26.26310542	     86.51662706	      0.00000000	      0.00000000
      1.28000000	      0.64020697	     -1.08955109	      3.70829857	     -0.85431218	      0.91618651	     -0.19624794	     -9.66095465	      6.57550405	     -6.14611689	    -11.03681178	     13.30119394	      1.31531958	     27.06840325	      1.90194758	      5.13197867	    -21.20525644	      2.97100987	     -4.69427079	     -9.59888465	      4.47466645	      1.77349644	     -1.80479586	    -23.29273319	      7.18664294	     35.05462250	     86.51662706	      0.00000000	      0.00000000	     -4.13445658	    -14.63862489	     12.89828493	     25.97125309	     86.51662706	      0.00000000	      0.00000000
      1.29000000	      0.60894565	     -1.14864351	      3.63517106	     -0.84211604	      0.91412279	     -0.19639253	    -10.42112868	      6.65332879	     -6.09315606	    -11.16508218	     13.68684770	      1.46965833	     27.18009908	      1.76320799	      4.88660354	    -18.53991016	      3.36683259	     -3.31754846	     -9.61132040	      4.50574719	      1.91162098	     -1.63575613	    -23.38526928	      7.23797099	     35.12374369	     86.51662706	      0.00000000	      0.00000000	     -4.08196726	    -14.54489823	     13.04260001	     25.64168052	     86.51662706	      0.00000000	      0.00000000
      1.30000000	      0.55903849	     -1.23084568	      3.53005015	     -0.82980283	      0.91205386	     -0.19659846	    -11.10535365	      6.71973986	     -6.02145732	    -11.41807004	     14.02308373	      1.69785738	     27.31736012	      1.60792719	      4.51680324	    -16.22382732	      3.80029083	     -1.68584410	     -9.59002248	      4.55956892	      2.06623534	     -1.49901946	    -23.47556959	      7.29393909	     35.17858920	     86.51662706	      0.00000000	      0.00000000	     -4.02277265	    -14.43472279	     13.21599180	     25.28438165	     86.51662706	      0.00000000	      0.00000000
